# xmcd
#
# Track frame offsets: 
#        150
#        14350
#        29387
#        45475
#        59500
#        72625
#        85525
#        95987
#        106450
#        117250
#        126362
#        139825
#        150925
#        165025
#        176950
#        186437
#        199712
#        220187
#        231025
#        246475
#        261250
#        274487
#        288925
#
# Disc length: 3971 seconds
#
# Revision: 3
# Processed by: cddbd v1.5.1PL0 Copyright (c) Steve Scherf et al.
# Submitted via: ExactAudioCopy v0.95b3
#
DISCID=590f8117
DTITLE=Various Artist - Rounder Bluegrass One
DYEAR=1987
DGENRE=Bluegrass
TTITLE0=Country Cooking - Big Ben
TTITLE1=Joe Val and The New England Bluegrass Boys - Along About Daybrea
TTITLE1=k
TTITLE2=Don Stover - Valley Of Peace
TTITLE3=Frank Wakefield - Sleepy-Eyed John
TTITLE4=Buzz Busby and Leon Morris - This World's No Place To Live In (B
TTITLE4=ut It's Home)
TTITLE5=Del McCoury and The Dixie Pals - High On A Mountain
TTITLE6=Ted Lundy and The Southern Mountain Boys - The Old Swinging Brid
TTITLE6=ge
TTITLE7=Hazel and Alice - Montana Cowboy
TTITLE8=The Bailey Brothers - Blow Your Whistle
TTITLE9=Connie and Babe and The Backwoods Boys - Home Is Where The Heart
TTITLE9=Is
TTITLE10=Jack Tottle - Wildwood Mandolin
TTITLE11=The Old Home String Band - I'm Gonna Put You Down (And Leave 
TTITLE11=You There)
TTITLE12=The New Kentucky Colonels - If You're Ever Gonna Love Me
TTITLE13=Allen Shelton - Banjo Bounce
TTITLE14=The Allen Brothers - Who Done It?
TTITLE15=The Vern Williams Band - Cabin On A Mountain
TTITLE16=Butch Robins - Sally Goodin
TTITLE17=Phyllis Boyens - Last Old Shovel
TTITLE18=Byron Berline - Ragtime Annie
TTITLE19=The Bluegrass Cardinals - Lorene
TTITLE20=Bill Keith - Crazy Creek
TTITLE21=Boone Creek - Dark Is The Night
TTITLE22=David Grisman - I Ain't Broke (But I'm Badly Bent)
EXTD=
EXTT0=Artist-Country Cooking\n\n
EXTT1=Artidt-Joe Val and the New England \nBluegrass Boys\n
EXTT2=Artist-Don Stover\n
EXTT3=Artist-Frank Wakefield\n
EXTT4=Artist-Buzz and Leon Morris\n
EXTT5=Artist-Del McCoury and The Dixie Pals\n
EXTT6=Artist-Ted Lundy and The Southern \nMountain Boys\n
EXTT7=Hazel and Alice\n
EXTT8=Artist-The Bailey Brothers\n
EXTT9=Connie and Babe and The Backwoods Boys\n
EXTT10=Jack Tottle\n
EXTT11=Artsist-The Old Home String Band\n
EXTT12=Artist-The New Kentucky Colonels\n
EXTT13=Artist-Allen Shelton\n
EXTT14=Artist-The Allen Brothers\n
EXTT15=Artist-The Vern Williams Band\n
EXTT16=Artist-Butch Robins\n
EXTT17=Artist-Phyllis Boyens\n
EXTT18=Artist-Byron Berline\n
EXTT19=Artist-The Bluegrass Cardinals\n
EXTT20=Artist-Bill Keith\n
EXTT21=Artist-Boone Creek\n
EXTT22=Artist-David Grisman\n
PLAYORDER=
